<svg width="257" height="218" viewBox="0 0 257 218" fill="none" xmlns="http://www.w3.org/2000/svg">
<g clip-path="url(#clip0_0_37)">
<path d="M125.678 199.887C125.385 199.887 125.088 199.841 124.804 199.74L97.4235 190.326C96.3232 189.947 95.587 188.911 95.587 187.741L95.5409 105.931L86.4295 144.754C86.1408 145.979 85.0657 146.846 83.8148 146.859L61.1909 147.095H61.1658C59.9066 147.095 58.7938 146.202 58.5135 144.964L50.2512 107.977V172.318C50.2512 173.215 49.8162 174.053 49.0841 174.562C48.352 175.072 47.4191 175.19 46.5866 174.878L19.5575 164.706C18.5033 164.31 17.7921 163.279 17.7921 162.146V56.8051C17.7921 55.6768 18.4991 54.6495 19.5491 54.2495L59.0071 39.2356C59.7392 38.9577 60.555 39.0083 61.2453 39.3788C61.9355 39.7493 62.4334 40.4019 62.6091 41.1639C63.772 46.1784 69.3485 71.1411 72.6409 85.8855C74.2473 78.0671 76.5524 66.8972 78.7194 56.662C80.2631 49.374 81.5056 43.6269 82.4217 39.5767C82.9488 37.2399 83.3755 35.4295 83.6851 34.2043C84.1955 32.1876 84.5176 30.9245 85.9023 30.7856C87.9689 30.2214 108.02 23.3039 124.804 17.4685C125.632 17.1822 126.553 17.3127 127.264 17.8263C127.979 18.34 128.402 19.1694 128.402 20.0536V197.151C128.402 198.031 127.975 198.86 127.264 199.374C126.799 199.711 126.243 199.883 125.682 199.883L125.678 199.887ZM99.4273 186.928L124.557 195.568V21.6493C98.5279 30.6972 90.3493 33.4465 87.6301 34.2801C86.4169 38.663 81.7273 60.6154 75.3434 91.8263C75.084 93.0978 74.0005 93.9945 72.7078 94.0072C71.4152 94.003 70.3191 93.1399 70.0346 91.8726C67.2861 79.5491 60.9859 51.3149 59.1577 43.3154L21.6283 57.5924V161.367L46.4067 170.693V97.7796C46.4067 96.3607 47.4232 95.2197 48.8205 95.064C50.222 94.904 51.4602 95.7966 51.7698 97.1817L62.0527 143.225L82.8903 143.006L94.014 95.6071C94.3361 94.2345 95.5744 93.3588 96.9717 93.523C98.3606 93.6872 99.3729 94.8282 99.3729 96.2344L99.4231 186.928H99.4273ZM86.8812 34.4991C86.4587 34.6169 86.3081 34.638 86.2161 34.6422C86.4629 34.6338 86.6846 34.5833 86.8812 34.4991Z" fill="white"/>
<path d="M134.413 199.887C133.853 199.887 133.296 199.715 132.832 199.378C132.121 198.864 131.694 198.035 131.694 197.155V20.0578C131.694 19.1736 132.121 18.3442 132.832 17.8305C133.543 17.3211 134.463 17.1864 135.292 17.4727C152.071 23.3081 172.127 30.2256 174.193 30.7898C175.578 30.9287 175.896 32.1918 176.411 34.2085C176.72 35.4379 177.147 37.2441 177.674 39.5808C178.586 43.6311 179.833 49.3782 181.376 56.6662C183.543 66.9014 185.848 78.0713 187.455 85.8897C190.459 72.4253 196.294 46.3047 197.487 41.1681C197.667 40.4019 198.16 39.7493 198.85 39.3788C199.541 39.0082 200.356 38.9535 201.089 39.2356L240.547 54.2495C241.597 54.6494 242.304 55.6768 242.304 56.8051V162.146C242.304 163.279 241.592 164.31 240.538 164.706L213.509 174.878C212.677 175.194 211.74 175.076 211.012 174.562C210.28 174.053 209.844 173.211 209.844 172.318V107.977L201.586 144.964C201.306 146.206 200.198 147.099 198.938 147.099H198.913L176.285 146.863C175.034 146.85 173.959 145.987 173.67 144.762L164.559 105.935L164.513 187.745C164.513 188.911 163.772 189.951 162.676 190.33L135.296 199.744C135.011 199.841 134.714 199.892 134.422 199.892L134.413 199.887ZM135.534 21.6493V195.572L160.664 186.932L160.714 96.2344C160.714 94.824 161.727 93.683 163.116 93.523C164.509 93.3588 165.751 94.2387 166.073 95.6113L177.197 143.011L198.035 143.23L208.318 97.1859C208.627 95.805 209.861 94.9082 211.267 95.0682C212.668 95.2239 213.681 96.3649 213.681 97.7838V170.697L238.459 161.372V57.5966L200.93 43.3196C199.014 51.7022 192.195 82.2605 190.053 91.8768C189.768 93.1441 188.676 94.024 187.38 94.0114C186.087 93.9987 185.008 93.102 184.744 91.8305C178.36 60.6238 173.67 38.6672 172.457 34.2843C169.738 33.4507 161.559 30.7014 135.53 21.6535L135.534 21.6493ZM173.21 34.499C173.407 34.579 173.629 34.6338 173.875 34.6422C173.779 34.6422 173.633 34.6169 173.21 34.499Z" fill="white"/>
<path d="M131.895 218C130.77 218 129.627 217.915 128.498 217.751C124.754 218.298 121.001 217.936 117.475 216.724L89.931 207.255C85.9107 205.874 76.3767 203.091 67.1564 200.401C56.3046 197.234 46.0553 194.245 42.5412 192.923L15.328 182.684C6.16218 179.227 0 170.289 0 160.437V59.2299C0 49.4157 6.12871 40.4857 15.2527 37.0164L54.0581 22.2509C56.2795 21.4047 65.9391 18.2596 78.1756 14.2725C92.441 9.62431 108.61 4.35725 117.391 1.30059C120.943 0.0627625 124.775 -0.299322 128.498 0.243805C132.221 -0.299322 136.053 0.0627625 139.605 1.30059C155.786 6.93394 173.988 13.2031 176.507 13.9651H176.519L175.863 16.1839L176.687 14.0283C177.733 14.4198 219.667 29.2232 241.693 36.9954L241.747 37.0164C250.871 40.4857 257 49.4157 257 59.2299V160.437C257 170.289 250.838 179.231 241.668 182.68L214.459 192.919C210.945 194.241 200.7 197.23 189.852 200.396C180.628 203.087 171.089 205.87 167.069 207.255L139.525 216.724C137.066 217.57 134.497 218 131.899 218H131.895ZM128.498 212.951L128.874 213.015C131.97 213.52 135.083 213.242 137.998 212.24L165.542 202.771C169.667 201.352 178.833 198.679 188.538 195.845C198.825 192.843 209.46 189.74 212.806 188.481L240.015 178.242C247.357 175.48 252.289 168.322 252.289 160.437V59.2299C252.289 51.3819 247.395 44.2455 240.107 41.4583C239.363 41.1972 223.478 35.5891 207.594 29.981C199.457 27.1096 191.325 24.234 185.225 22.0783C182.175 21.0005 179.632 20.0995 177.854 19.468L175.235 18.5375C175.193 18.5248 175.156 18.508 175.118 18.4912C172.39 17.6575 154.209 11.4011 138.07 5.78032C135.133 4.75723 131.953 4.48356 128.879 4.98037L128.502 5.04353L128.126 4.98037C125.051 4.47935 121.871 4.75723 118.935 5.78032C110.108 8.85383 93.9136 14.1293 79.6272 18.7817C67.9345 22.5878 57.84 25.8802 55.7273 26.6844L16.9219 41.4498C9.61768 44.2286 4.71053 51.3735 4.71053 59.2341V160.441C4.71053 168.331 9.64278 175.484 16.9847 178.246L44.1978 188.486C47.5446 189.744 58.1872 192.852 68.4742 195.853C78.1756 198.683 87.3372 201.356 91.4621 202.775L119.006 212.244C121.922 213.246 125.03 213.524 128.13 213.019L128.506 212.956L128.498 212.951Z" fill="white"/>
</g>
<defs>
<clipPath id="clip0_0_37">
<rect width="257" height="218" fill="white"/>
</clipPath>
</defs>
</svg>
